<mxfile host="Electron" agent="Mozilla/5.0 (Windows NT 10.0; Win64; x64) AppleWebKit/537.36 (KHTML, like Gecko) draw.io/26.0.9 Chrome/128.0.6613.186 Electron/32.2.5 Safari/537.36" version="26.0.9">
  <diagram name="Overview" id="UhRu1boo0Z9T6AX8Ht3w">
    <mxGraphModel dx="3324" dy="573" grid="1" gridSize="10" guides="1" tooltips="1" connect="1" arrows="1" fold="1" page="1" pageScale="1" pageWidth="2336" pageHeight="1654" math="0" shadow="0">
      <root>
        <mxCell id="0" />
        <mxCell id="1" parent="0" />
        <mxCell id="oR2cxEqv1MCWyZYLTyET-2" value="&lt;font style=&quot;font-size: 20px;&quot;&gt;Rover&lt;/font&gt;" style="swimlane;whiteSpace=wrap;html=1;startSize=40;fontFamily=Niramit;" parent="1" vertex="1">
          <mxGeometry x="60" y="60" width="750" height="660" as="geometry" />
        </mxCell>
        <mxCell id="oR2cxEqv1MCWyZYLTyET-6" value="Control Server&lt;div&gt;tcp port 8000&lt;/div&gt;" style="rounded=0;whiteSpace=wrap;html=1;fontFamily=Niramit;" parent="oR2cxEqv1MCWyZYLTyET-2" vertex="1">
          <mxGeometry x="90" y="100" width="170" height="130" as="geometry" />
        </mxCell>
        <mxCell id="oR2cxEqv1MCWyZYLTyET-8" value="Video Stream Server&lt;div&gt;port : 7123/stream.mjpg&lt;/div&gt;" style="rounded=0;whiteSpace=wrap;html=1;fontFamily=Niramit;" parent="oR2cxEqv1MCWyZYLTyET-2" vertex="1">
          <mxGeometry x="280" y="100" width="170" height="130" as="geometry" />
        </mxCell>
        <mxCell id="oR2cxEqv1MCWyZYLTyET-9" value="mdns broadcast&lt;div&gt;idle listening for&amp;nbsp;&lt;/div&gt;&lt;div&gt;Rover Scan Functionality&lt;/div&gt;" style="rounded=0;whiteSpace=wrap;html=1;fontFamily=Niramit;" parent="oR2cxEqv1MCWyZYLTyET-2" vertex="1">
          <mxGeometry x="470" y="100" width="170" height="130" as="geometry" />
        </mxCell>
        <mxCell id="oR2cxEqv1MCWyZYLTyET-14" style="edgeStyle=orthogonalEdgeStyle;rounded=0;orthogonalLoop=1;jettySize=auto;html=1;entryX=0.5;entryY=0;entryDx=0;entryDy=0;exitX=0.111;exitY=1.001;exitDx=0;exitDy=0;exitPerimeter=0;fontFamily=Niramit;" parent="oR2cxEqv1MCWyZYLTyET-2" target="oR2cxEqv1MCWyZYLTyET-13" edge="1">
          <mxGeometry relative="1" as="geometry">
            <mxPoint x="205.48999999999978" y="320" as="sourcePoint" />
          </mxGeometry>
        </mxCell>
        <mxCell id="oR2cxEqv1MCWyZYLTyET-15" value="Internal Connect" style="edgeLabel;html=1;align=center;verticalAlign=middle;resizable=0;points=[];fontFamily=Niramit;" parent="oR2cxEqv1MCWyZYLTyET-14" vertex="1" connectable="0">
          <mxGeometry x="-0.2267" relative="1" as="geometry">
            <mxPoint as="offset" />
          </mxGeometry>
        </mxCell>
        <mxCell id="oR2cxEqv1MCWyZYLTyET-11" value="" style="swimlane;startSize=0;fontFamily=Niramit;" parent="oR2cxEqv1MCWyZYLTyET-2" vertex="1">
          <mxGeometry x="70" y="70" width="590" height="250" as="geometry" />
        </mxCell>
        <mxCell id="oR2cxEqv1MCWyZYLTyET-12" value="Raspberry Pi" style="text;html=1;align=center;verticalAlign=middle;resizable=0;points=[];autosize=1;strokeColor=none;fillColor=none;fontFamily=Niramit;" parent="oR2cxEqv1MCWyZYLTyET-11" vertex="1">
          <mxGeometry x="250" y="200" width="90" height="30" as="geometry" />
        </mxCell>
        <mxCell id="oR2cxEqv1MCWyZYLTyET-13" value="&lt;div&gt;&lt;br&gt;&lt;/div&gt;&amp;nbsp; &amp;nbsp; &amp;nbsp; &amp;nbsp; &amp;nbsp; &amp;nbsp; &amp;nbsp; Rover Control Peripheral&lt;div&gt;&lt;ol&gt;&lt;li style=&quot;&quot;&gt;Motor&lt;/li&gt;&lt;li style=&quot;&quot;&gt;Ultrasonic&lt;/li&gt;&lt;li style=&quot;&quot;&gt;IR Detect&lt;/li&gt;&lt;li style=&quot;&quot;&gt;IR Line&lt;/li&gt;&lt;li style=&quot;&quot;&gt;IR Remote Sensor&lt;/li&gt;&lt;li style=&quot;&quot;&gt;Camera&lt;/li&gt;&lt;li style=&quot;&quot;&gt;Servo&lt;/li&gt;&lt;/ol&gt;&lt;/div&gt;" style="rounded=0;whiteSpace=wrap;html=1;align=left;fontFamily=Niramit;verticalAlign=top;" parent="oR2cxEqv1MCWyZYLTyET-2" vertex="1">
          <mxGeometry x="81" y="409.75" width="250" height="190" as="geometry" />
        </mxCell>
        <mxCell id="oR2cxEqv1MCWyZYLTyET-16" value="USB WiFi" style="rounded=0;whiteSpace=wrap;html=1;align=center;fontFamily=Niramit;verticalAlign=middle;imageAspect=1;android:paddingTop=20;labelPadding=0;" parent="oR2cxEqv1MCWyZYLTyET-2" vertex="1">
          <mxGeometry x="390" y="408.25" width="250" height="190" as="geometry" />
        </mxCell>
        <mxCell id="oR2cxEqv1MCWyZYLTyET-17" style="edgeStyle=orthogonalEdgeStyle;rounded=0;orthogonalLoop=1;jettySize=auto;html=1;entryX=0.445;entryY=-0.016;entryDx=0;entryDy=0;entryPerimeter=0;exitX=0.629;exitY=1.007;exitDx=0;exitDy=0;exitPerimeter=0;fontFamily=Niramit;" parent="oR2cxEqv1MCWyZYLTyET-2" target="oR2cxEqv1MCWyZYLTyET-16" edge="1">
          <mxGeometry relative="1" as="geometry">
            <mxPoint x="501.1100000000001" y="320" as="sourcePoint" />
          </mxGeometry>
        </mxCell>
        <mxCell id="oR2cxEqv1MCWyZYLTyET-18" value="USB" style="edgeLabel;html=1;align=center;verticalAlign=middle;resizable=0;points=[];fontFamily=Niramit;" parent="oR2cxEqv1MCWyZYLTyET-17" vertex="1" connectable="0">
          <mxGeometry x="-0.0304" y="1" relative="1" as="geometry">
            <mxPoint y="1" as="offset" />
          </mxGeometry>
        </mxCell>
        <mxCell id="oR2cxEqv1MCWyZYLTyET-19" value="" style="sketch=0;pointerEvents=1;shadow=0;dashed=0;html=1;strokeColor=none;fillColor=#434445;aspect=fixed;labelPosition=center;verticalLabelPosition=bottom;verticalAlign=top;align=center;outlineConnect=0;shape=mxgraph.vvd.wi_fi;fontFamily=Niramit;" parent="oR2cxEqv1MCWyZYLTyET-2" vertex="1">
          <mxGeometry x="580" y="418.25" width="50" height="50" as="geometry" />
        </mxCell>
        <mxCell id="oR2cxEqv1MCWyZYLTyET-21" value="WiFi" style="text;html=1;align=center;verticalAlign=middle;resizable=0;points=[];autosize=1;strokeColor=none;fillColor=none;fontFamily=Niramit;" parent="oR2cxEqv1MCWyZYLTyET-2" vertex="1">
          <mxGeometry x="580" y="468.25" width="50" height="30" as="geometry" />
        </mxCell>
        <mxCell id="hHd1IVIm0wkha_epQA3C-38" value="" style="edgeStyle=none;orthogonalLoop=1;jettySize=auto;html=1;rounded=0;exitX=1;exitY=0;exitDx=0;exitDy=0;entryX=0;entryY=0.75;entryDx=0;entryDy=0;startArrow=classic;startFill=1;fontFamily=Niramit;" parent="1" source="hHd1IVIm0wkha_epQA3C-75" target="hHd1IVIm0wkha_epQA3C-60" edge="1">
          <mxGeometry width="100" relative="1" as="geometry">
            <mxPoint x="1110" y="420" as="sourcePoint" />
            <mxPoint x="1340" y="320" as="targetPoint" />
            <Array as="points" />
          </mxGeometry>
        </mxCell>
        <mxCell id="hHd1IVIm0wkha_epQA3C-39" value="WiFi" style="edgeLabel;html=1;align=center;verticalAlign=middle;resizable=0;points=[];fontFamily=Niramit;" parent="hHd1IVIm0wkha_epQA3C-38" vertex="1" connectable="0">
          <mxGeometry x="0.0831" y="-1" relative="1" as="geometry">
            <mxPoint as="offset" />
          </mxGeometry>
        </mxCell>
        <mxCell id="hHd1IVIm0wkha_epQA3C-40" value="" style="edgeStyle=none;orthogonalLoop=1;jettySize=auto;html=1;rounded=0;exitX=1;exitY=0.75;exitDx=0;exitDy=0;entryX=0;entryY=0;entryDx=0;entryDy=0;startArrow=classic;startFill=1;fontFamily=Niramit;" parent="1" source="hHd1IVIm0wkha_epQA3C-60" target="hHd1IVIm0wkha_epQA3C-87" edge="1">
          <mxGeometry width="100" relative="1" as="geometry">
            <mxPoint x="1497.2799999999997" y="316" as="sourcePoint" />
            <mxPoint x="1700" y="410" as="targetPoint" />
            <Array as="points" />
          </mxGeometry>
        </mxCell>
        <mxCell id="hHd1IVIm0wkha_epQA3C-41" value="WiFi / Ethernet" style="edgeLabel;html=1;align=center;verticalAlign=middle;resizable=0;points=[];fontFamily=Niramit;" parent="hHd1IVIm0wkha_epQA3C-40" vertex="1" connectable="0">
          <mxGeometry x="0.0831" y="-1" relative="1" as="geometry">
            <mxPoint as="offset" />
          </mxGeometry>
        </mxCell>
        <mxCell id="hHd1IVIm0wkha_epQA3C-60" value="" style="swimlane;startSize=0;strokeColor=none;fontFamily=Niramit;" parent="1" vertex="1">
          <mxGeometry x="1380" y="230" width="100" height="100" as="geometry" />
        </mxCell>
        <mxCell id="hHd1IVIm0wkha_epQA3C-61" value="Router 1" style="text;html=1;align=center;verticalAlign=middle;resizable=0;points=[];autosize=1;strokeColor=none;fillColor=none;fontFamily=Niramit;" parent="hHd1IVIm0wkha_epQA3C-60" vertex="1">
          <mxGeometry x="18.4" y="62.99999999999999" width="70" height="30" as="geometry" />
        </mxCell>
        <mxCell id="hHd1IVIm0wkha_epQA3C-58" value="" style="points=[];aspect=fixed;html=1;align=center;shadow=0;dashed=0;fillColor=#FF6A00;strokeColor=none;shape=mxgraph.alibaba_cloud.router;fontFamily=Niramit;" parent="hHd1IVIm0wkha_epQA3C-60" vertex="1">
          <mxGeometry x="25.800000000000182" y="10" width="55.2" height="57.599999999999994" as="geometry" />
        </mxCell>
        <mxCell id="hHd1IVIm0wkha_epQA3C-62" value="Sabotage Button" style="swimlane;whiteSpace=wrap;html=1;fontFamily=Niramit;startSize=30;fontSize=16;" parent="1" vertex="1">
          <mxGeometry x="-570" y="50" width="430" height="363" as="geometry" />
        </mxCell>
        <mxCell id="hHd1IVIm0wkha_epQA3C-63" value="" style="sketch=0;pointerEvents=1;shadow=0;dashed=0;html=1;strokeColor=none;fillColor=#434445;aspect=fixed;labelPosition=center;verticalLabelPosition=bottom;verticalAlign=top;align=center;outlineConnect=0;shape=mxgraph.vvd.wi_fi;rotation=-45;fontFamily=Niramit;" parent="hHd1IVIm0wkha_epQA3C-62" vertex="1">
          <mxGeometry x="20" y="30" width="50" height="50" as="geometry" />
        </mxCell>
        <mxCell id="hHd1IVIm0wkha_epQA3C-64" value="Microcontroller" style="whiteSpace=wrap;html=1;fontFamily=Niramit;" parent="hHd1IVIm0wkha_epQA3C-62" vertex="1">
          <mxGeometry x="155" y="67" width="120" height="100" as="geometry" />
        </mxCell>
        <mxCell id="hHd1IVIm0wkha_epQA3C-65" style="edgeStyle=orthogonalEdgeStyle;rounded=0;orthogonalLoop=1;jettySize=auto;html=1;entryX=0.5;entryY=1;entryDx=0;entryDy=0;fontFamily=Niramit;" parent="hHd1IVIm0wkha_epQA3C-62" source="hHd1IVIm0wkha_epQA3C-66" target="hHd1IVIm0wkha_epQA3C-68" edge="1">
          <mxGeometry relative="1" as="geometry" />
        </mxCell>
        <mxCell id="hHd1IVIm0wkha_epQA3C-66" value="USB Charge" style="whiteSpace=wrap;html=1;fontFamily=Niramit;" parent="hHd1IVIm0wkha_epQA3C-62" vertex="1">
          <mxGeometry x="20" y="300" width="170" height="40" as="geometry" />
        </mxCell>
        <mxCell id="hHd1IVIm0wkha_epQA3C-67" style="edgeStyle=orthogonalEdgeStyle;rounded=0;orthogonalLoop=1;jettySize=auto;html=1;entryX=0.5;entryY=1;entryDx=0;entryDy=0;fontFamily=Niramit;" parent="hHd1IVIm0wkha_epQA3C-62" source="hHd1IVIm0wkha_epQA3C-68" target="hHd1IVIm0wkha_epQA3C-70" edge="1">
          <mxGeometry relative="1" as="geometry" />
        </mxCell>
        <mxCell id="hHd1IVIm0wkha_epQA3C-68" value="Battery &amp;amp; BMS" style="whiteSpace=wrap;html=1;fontFamily=Niramit;" parent="hHd1IVIm0wkha_epQA3C-62" vertex="1">
          <mxGeometry x="20" y="240" width="170" height="40" as="geometry" />
        </mxCell>
        <mxCell id="hHd1IVIm0wkha_epQA3C-69" style="edgeStyle=orthogonalEdgeStyle;rounded=0;orthogonalLoop=1;jettySize=auto;html=1;entryX=0;entryY=0.5;entryDx=0;entryDy=0;fontFamily=Niramit;" parent="hHd1IVIm0wkha_epQA3C-62" source="hHd1IVIm0wkha_epQA3C-70" target="hHd1IVIm0wkha_epQA3C-64" edge="1">
          <mxGeometry relative="1" as="geometry" />
        </mxCell>
        <mxCell id="hHd1IVIm0wkha_epQA3C-70" value="Regulate" style="whiteSpace=wrap;html=1;fontFamily=Niramit;" parent="hHd1IVIm0wkha_epQA3C-62" vertex="1">
          <mxGeometry x="20" y="180" width="170" height="40" as="geometry" />
        </mxCell>
        <mxCell id="hHd1IVIm0wkha_epQA3C-71" style="edgeStyle=orthogonalEdgeStyle;rounded=0;orthogonalLoop=1;jettySize=auto;html=1;entryX=1;entryY=0.5;entryDx=0;entryDy=0;fontFamily=Niramit;" parent="hHd1IVIm0wkha_epQA3C-62" source="hHd1IVIm0wkha_epQA3C-72" target="hHd1IVIm0wkha_epQA3C-64" edge="1">
          <mxGeometry relative="1" as="geometry" />
        </mxCell>
        <mxCell id="hHd1IVIm0wkha_epQA3C-72" value="Emergency Meeting Button" style="whiteSpace=wrap;html=1;fontFamily=Niramit;" parent="hHd1IVIm0wkha_epQA3C-62" vertex="1">
          <mxGeometry x="240" y="180" width="180" height="160" as="geometry" />
        </mxCell>
        <mxCell id="hHd1IVIm0wkha_epQA3C-73" value="WiFi" style="text;html=1;align=center;verticalAlign=middle;resizable=0;points=[];autosize=1;strokeColor=none;fillColor=none;fontFamily=Niramit;" parent="hHd1IVIm0wkha_epQA3C-62" vertex="1">
          <mxGeometry x="20" y="90" width="50" height="30" as="geometry" />
        </mxCell>
        <mxCell id="hHd1IVIm0wkha_epQA3C-75" value="Rover 1" style="rounded=1;whiteSpace=wrap;html=1;fontFamily=Niramit;" parent="1" vertex="1">
          <mxGeometry x="1168" y="360" width="120" height="60" as="geometry" />
        </mxCell>
        <mxCell id="hHd1IVIm0wkha_epQA3C-80" value="Control&amp;nbsp;&lt;span style=&quot;background-color: initial;&quot;&gt;Station&lt;/span&gt;" style="swimlane;whiteSpace=wrap;html=1;fontFamily=Niramit;startSize=35;fontSize=16;" parent="1" vertex="1">
          <mxGeometry x="60" y="750" width="610" height="340" as="geometry" />
        </mxCell>
        <mxCell id="hHd1IVIm0wkha_epQA3C-83" value="Computer" style="swimlane;whiteSpace=wrap;html=1;fontFamily=Niramit;" parent="hHd1IVIm0wkha_epQA3C-80" vertex="1">
          <mxGeometry x="60" y="90" width="200" height="200" as="geometry" />
        </mxCell>
        <mxCell id="hHd1IVIm0wkha_epQA3C-81" value="Video Stream &amp;amp;&amp;nbsp;&lt;div&gt;Car control Software&lt;/div&gt;" style="whiteSpace=wrap;html=1;fontFamily=Niramit;" parent="hHd1IVIm0wkha_epQA3C-83" vertex="1">
          <mxGeometry x="22.5" y="40" width="155" height="130" as="geometry" />
        </mxCell>
        <mxCell id="hHd1IVIm0wkha_epQA3C-85" style="edgeStyle=orthogonalEdgeStyle;rounded=0;orthogonalLoop=1;jettySize=auto;html=1;fontFamily=Niramit;" parent="hHd1IVIm0wkha_epQA3C-80" source="hHd1IVIm0wkha_epQA3C-84" edge="1">
          <mxGeometry relative="1" as="geometry">
            <mxPoint x="260" y="200" as="targetPoint" />
          </mxGeometry>
        </mxCell>
        <mxCell id="hHd1IVIm0wkha_epQA3C-86" value="USB" style="edgeLabel;html=1;align=center;verticalAlign=middle;resizable=0;points=[];fontFamily=Niramit;" parent="hHd1IVIm0wkha_epQA3C-85" vertex="1" connectable="0">
          <mxGeometry x="-0.0709" y="-1" relative="1" as="geometry">
            <mxPoint as="offset" />
          </mxGeometry>
        </mxCell>
        <mxCell id="hHd1IVIm0wkha_epQA3C-84" value="" style="shape=image;verticalLabelPosition=bottom;labelBackgroundColor=default;verticalAlign=top;aspect=fixed;imageAspect=0;image=https://resource.logitechg.com/d_transparent.gif/content/dam/gaming/en/products/drivingforce/g920-gallery-3-2.png;fontFamily=Niramit;" parent="hHd1IVIm0wkha_epQA3C-80" vertex="1">
          <mxGeometry x="334" y="115" width="226.67" height="170" as="geometry" />
        </mxCell>
        <mxCell id="hHd1IVIm0wkha_epQA3C-87" value="Control Station 1" style="rounded=1;whiteSpace=wrap;html=1;fontFamily=Niramit;" parent="1" vertex="1">
          <mxGeometry x="1540" y="360" width="100" height="60" as="geometry" />
        </mxCell>
        <mxCell id="hHd1IVIm0wkha_epQA3C-97" value="" style="edgeStyle=none;orthogonalLoop=1;jettySize=auto;html=1;rounded=0;exitX=1;exitY=0;exitDx=0;exitDy=0;entryX=0;entryY=0.75;entryDx=0;entryDy=0;startArrow=classic;startFill=1;fontFamily=Niramit;" parent="1" source="hHd1IVIm0wkha_epQA3C-104" target="hHd1IVIm0wkha_epQA3C-101" edge="1">
          <mxGeometry width="100" relative="1" as="geometry">
            <mxPoint x="1612" y="420" as="sourcePoint" />
            <mxPoint x="1842" y="320" as="targetPoint" />
            <Array as="points" />
          </mxGeometry>
        </mxCell>
        <mxCell id="hHd1IVIm0wkha_epQA3C-98" value="WiFi" style="edgeLabel;html=1;align=center;verticalAlign=middle;resizable=0;points=[];fontFamily=Niramit;" parent="hHd1IVIm0wkha_epQA3C-97" vertex="1" connectable="0">
          <mxGeometry x="0.0831" y="-1" relative="1" as="geometry">
            <mxPoint as="offset" />
          </mxGeometry>
        </mxCell>
        <mxCell id="hHd1IVIm0wkha_epQA3C-99" value="" style="edgeStyle=none;orthogonalLoop=1;jettySize=auto;html=1;rounded=0;exitX=1;exitY=0.75;exitDx=0;exitDy=0;entryX=0;entryY=0;entryDx=0;entryDy=0;startArrow=classic;startFill=1;fontFamily=Niramit;" parent="1" source="hHd1IVIm0wkha_epQA3C-101" target="hHd1IVIm0wkha_epQA3C-105" edge="1">
          <mxGeometry width="100" relative="1" as="geometry">
            <mxPoint x="1999.2799999999997" y="316" as="sourcePoint" />
            <mxPoint x="2202" y="410" as="targetPoint" />
            <Array as="points" />
          </mxGeometry>
        </mxCell>
        <mxCell id="hHd1IVIm0wkha_epQA3C-100" value="WiFi / Ethernet" style="edgeLabel;html=1;align=center;verticalAlign=middle;resizable=0;points=[];fontFamily=Niramit;" parent="hHd1IVIm0wkha_epQA3C-99" vertex="1" connectable="0">
          <mxGeometry x="0.0831" y="-1" relative="1" as="geometry">
            <mxPoint as="offset" />
          </mxGeometry>
        </mxCell>
        <mxCell id="hHd1IVIm0wkha_epQA3C-101" value="" style="swimlane;startSize=0;strokeColor=none;fontFamily=Niramit;" parent="1" vertex="1">
          <mxGeometry x="1882" y="230" width="100" height="100" as="geometry" />
        </mxCell>
        <mxCell id="hHd1IVIm0wkha_epQA3C-102" value="Router 2" style="text;html=1;align=center;verticalAlign=middle;resizable=0;points=[];autosize=1;strokeColor=none;fillColor=none;fontFamily=Niramit;" parent="hHd1IVIm0wkha_epQA3C-101" vertex="1">
          <mxGeometry x="21" y="63.99999999999999" width="70" height="30" as="geometry" />
        </mxCell>
        <mxCell id="hHd1IVIm0wkha_epQA3C-103" value="" style="points=[];aspect=fixed;html=1;align=center;shadow=0;dashed=0;fillColor=#FF6A00;strokeColor=none;shape=mxgraph.alibaba_cloud.router;fontFamily=Niramit;" parent="hHd1IVIm0wkha_epQA3C-101" vertex="1">
          <mxGeometry x="25.800000000000182" y="10" width="55.2" height="57.599999999999994" as="geometry" />
        </mxCell>
        <mxCell id="hHd1IVIm0wkha_epQA3C-104" value="Rover 2" style="rounded=1;whiteSpace=wrap;html=1;fontFamily=Niramit;" parent="1" vertex="1">
          <mxGeometry x="1710" y="370" width="120" height="60" as="geometry" />
        </mxCell>
        <mxCell id="hHd1IVIm0wkha_epQA3C-105" value="Control Station 2" style="rounded=1;whiteSpace=wrap;html=1;fontFamily=Niramit;" parent="1" vertex="1">
          <mxGeometry x="2040" y="370" width="100" height="60" as="geometry" />
        </mxCell>
        <mxCell id="hHd1IVIm0wkha_epQA3C-106" value="Central Server" style="swimlane;whiteSpace=wrap;html=1;fontFamily=Niramit;startSize=35;fontSize=16;" parent="1" vertex="1">
          <mxGeometry x="690" y="750" width="330" height="170" as="geometry" />
        </mxCell>
        <mxCell id="hHd1IVIm0wkha_epQA3C-112" value="MQTT Server" style="rounded=1;whiteSpace=wrap;html=1;fontFamily=Niramit;" parent="hHd1IVIm0wkha_epQA3C-106" vertex="1">
          <mxGeometry x="20" y="70" width="120" height="70" as="geometry" />
        </mxCell>
        <mxCell id="hHd1IVIm0wkha_epQA3C-114" value="NodeJS&lt;div&gt;Image Upload Server&lt;/div&gt;" style="rounded=1;whiteSpace=wrap;html=1;fontFamily=Niramit;" parent="hHd1IVIm0wkha_epQA3C-106" vertex="1">
          <mxGeometry x="184" y="70" width="126" height="70" as="geometry" />
        </mxCell>
        <mxCell id="hHd1IVIm0wkha_epQA3C-115" value="Central Server" style="rounded=1;whiteSpace=wrap;html=1;fontFamily=Niramit;" parent="1" vertex="1">
          <mxGeometry x="1630" y="70" width="120" height="60" as="geometry" />
        </mxCell>
        <mxCell id="hHd1IVIm0wkha_epQA3C-117" value="" style="edgeStyle=none;orthogonalLoop=1;jettySize=auto;html=1;endArrow=classic;startArrow=classic;endSize=8;startSize=8;rounded=0;exitX=1;exitY=0;exitDx=0;exitDy=0;entryX=0;entryY=1;entryDx=0;entryDy=0;fontFamily=Niramit;" parent="1" source="hHd1IVIm0wkha_epQA3C-60" target="hHd1IVIm0wkha_epQA3C-115" edge="1">
          <mxGeometry width="100" relative="1" as="geometry">
            <mxPoint x="1520" y="180" as="sourcePoint" />
            <mxPoint x="1620" y="180" as="targetPoint" />
            <Array as="points" />
          </mxGeometry>
        </mxCell>
        <mxCell id="hHd1IVIm0wkha_epQA3C-120" value="&lt;span style=&quot;&quot;&gt;Ethernet&lt;/span&gt;" style="edgeLabel;html=1;align=center;verticalAlign=middle;resizable=0;points=[];fontFamily=Niramit;" parent="hHd1IVIm0wkha_epQA3C-117" vertex="1" connectable="0">
          <mxGeometry x="0.1057" relative="1" as="geometry">
            <mxPoint as="offset" />
          </mxGeometry>
        </mxCell>
        <mxCell id="hHd1IVIm0wkha_epQA3C-118" value="" style="edgeStyle=none;orthogonalLoop=1;jettySize=auto;html=1;endArrow=classic;startArrow=classic;endSize=8;startSize=8;rounded=0;entryX=0;entryY=0;entryDx=0;entryDy=0;exitX=1;exitY=1;exitDx=0;exitDy=0;fontFamily=Niramit;" parent="1" source="hHd1IVIm0wkha_epQA3C-115" target="hHd1IVIm0wkha_epQA3C-101" edge="1">
          <mxGeometry width="100" relative="1" as="geometry">
            <mxPoint x="1740" y="200" as="sourcePoint" />
            <mxPoint x="1840" y="200" as="targetPoint" />
            <Array as="points" />
          </mxGeometry>
        </mxCell>
        <mxCell id="hHd1IVIm0wkha_epQA3C-119" value="&lt;span style=&quot;&quot;&gt;Ethernet&lt;/span&gt;" style="edgeLabel;html=1;align=center;verticalAlign=middle;resizable=0;points=[];fontFamily=Niramit;" parent="hHd1IVIm0wkha_epQA3C-118" vertex="1" connectable="0">
          <mxGeometry x="-0.0723" relative="1" as="geometry">
            <mxPoint as="offset" />
          </mxGeometry>
        </mxCell>
        <mxCell id="hHd1IVIm0wkha_epQA3C-121" value="Status Light Control Node" style="rounded=1;whiteSpace=wrap;html=1;fontFamily=Niramit;" parent="1" vertex="1">
          <mxGeometry x="2060" y="90" width="120" height="60" as="geometry" />
        </mxCell>
        <mxCell id="hHd1IVIm0wkha_epQA3C-122" value="" style="edgeStyle=none;orthogonalLoop=1;jettySize=auto;html=1;rounded=0;exitX=1;exitY=0;exitDx=0;exitDy=0;entryX=0;entryY=1;entryDx=0;entryDy=0;startArrow=classic;startFill=1;fontFamily=Niramit;" parent="1" source="hHd1IVIm0wkha_epQA3C-101" target="hHd1IVIm0wkha_epQA3C-121" edge="1">
          <mxGeometry width="100" relative="1" as="geometry">
            <mxPoint x="1980" y="220" as="sourcePoint" />
            <mxPoint x="2080" y="220" as="targetPoint" />
            <Array as="points" />
          </mxGeometry>
        </mxCell>
        <mxCell id="hHd1IVIm0wkha_epQA3C-123" value="WiFi" style="edgeLabel;html=1;align=center;verticalAlign=middle;resizable=0;points=[];fontFamily=Niramit;" parent="hHd1IVIm0wkha_epQA3C-122" vertex="1" connectable="0">
          <mxGeometry x="0.3018" relative="1" as="geometry">
            <mxPoint as="offset" />
          </mxGeometry>
        </mxCell>
        <mxCell id="hHd1IVIm0wkha_epQA3C-124" value="Misson Control Station" style="rounded=1;whiteSpace=wrap;html=1;fontFamily=Niramit;" parent="1" vertex="1">
          <mxGeometry x="1168" y="60" width="120" height="60" as="geometry" />
        </mxCell>
        <mxCell id="hHd1IVIm0wkha_epQA3C-125" value="" style="edgeStyle=none;orthogonalLoop=1;jettySize=auto;html=1;endArrow=classic;startArrow=classic;endSize=8;startSize=8;rounded=0;exitX=0.968;exitY=0.955;exitDx=0;exitDy=0;exitPerimeter=0;entryX=0;entryY=0;entryDx=0;entryDy=0;fontFamily=Niramit;" parent="1" source="hHd1IVIm0wkha_epQA3C-124" target="hHd1IVIm0wkha_epQA3C-60" edge="1">
          <mxGeometry width="100" relative="1" as="geometry">
            <mxPoint x="1330" y="140" as="sourcePoint" />
            <mxPoint x="1430" y="140" as="targetPoint" />
            <Array as="points" />
          </mxGeometry>
        </mxCell>
        <mxCell id="vm62P0ihEN3N86-6UVHa-1" value="WiFi / Ethernet" style="edgeLabel;html=1;align=center;verticalAlign=middle;resizable=0;points=[];fontFamily=Niramit;" vertex="1" connectable="0" parent="hHd1IVIm0wkha_epQA3C-125">
          <mxGeometry x="-0.0749" y="1" relative="1" as="geometry">
            <mxPoint as="offset" />
          </mxGeometry>
        </mxCell>
        <mxCell id="vm62P0ihEN3N86-6UVHa-9" style="edgeStyle=orthogonalEdgeStyle;rounded=0;orthogonalLoop=1;jettySize=auto;html=1;entryX=0.5;entryY=0;entryDx=0;entryDy=0;startArrow=classic;startFill=1;fontFamily=K2D;" edge="1" parent="1" source="vm62P0ihEN3N86-6UVHa-6" target="vm62P0ihEN3N86-6UVHa-8">
          <mxGeometry relative="1" as="geometry" />
        </mxCell>
        <mxCell id="vm62P0ihEN3N86-6UVHa-10" value="USB" style="edgeLabel;html=1;align=center;verticalAlign=middle;resizable=0;points=[];fontSize=15;fontFamily=K2D;" vertex="1" connectable="0" parent="vm62P0ihEN3N86-6UVHa-9">
          <mxGeometry x="0.0076" relative="1" as="geometry">
            <mxPoint as="offset" />
          </mxGeometry>
        </mxCell>
        <mxCell id="vm62P0ihEN3N86-6UVHa-6" value="Control Station" style="rounded=1;whiteSpace=wrap;html=1;fontFamily=K2D;fontSize=21;" vertex="1" parent="1">
          <mxGeometry x="1710" y="830" width="180" height="160" as="geometry" />
        </mxCell>
        <mxCell id="vm62P0ihEN3N86-6UVHa-8" value="&lt;span style=&quot;font-kerning: none;&quot; class=&quot;OYPEnA font-feature-liga-off font-feature-clig-off font-feature-calt-off text-decoration-none text-strikethrough-none&quot;&gt;Steering wheel&lt;/span&gt;" style="rounded=1;whiteSpace=wrap;html=1;fontFamily=K2D;fontSize=21;fontStyle=0" vertex="1" parent="1">
          <mxGeometry x="1710" y="1070" width="180" height="160" as="geometry" />
        </mxCell>
        <mxCell id="vm62P0ihEN3N86-6UVHa-19" style="edgeStyle=orthogonalEdgeStyle;rounded=0;orthogonalLoop=1;jettySize=auto;html=1;startArrow=classic;startFill=1;exitX=0.5;exitY=1;exitDx=0;exitDy=0;" edge="1" parent="1" source="vm62P0ihEN3N86-6UVHa-17" target="vm62P0ihEN3N86-6UVHa-6">
          <mxGeometry relative="1" as="geometry">
            <mxPoint x="1840" y="830" as="targetPoint" />
            <Array as="points" />
          </mxGeometry>
        </mxCell>
        <mxCell id="vm62P0ihEN3N86-6UVHa-21" value="Image Upload&lt;div&gt;HTTP Protocol&lt;/div&gt;" style="edgeLabel;html=1;align=center;verticalAlign=middle;resizable=0;points=[];fontFamily=K2D;fontSize=14;" vertex="1" connectable="0" parent="vm62P0ihEN3N86-6UVHa-19">
          <mxGeometry x="0.0538" y="1" relative="1" as="geometry">
            <mxPoint as="offset" />
          </mxGeometry>
        </mxCell>
        <mxCell id="vm62P0ihEN3N86-6UVHa-17" value="Central Server" style="rounded=1;whiteSpace=wrap;html=1;fontFamily=K2D;fontSize=21;" vertex="1" parent="1">
          <mxGeometry x="1690" y="560" width="220" height="160" as="geometry" />
        </mxCell>
        <mxCell id="vm62P0ihEN3N86-6UVHa-26" value="Rover" style="rounded=1;whiteSpace=wrap;html=1;fontFamily=K2D;fontSize=21;" vertex="1" parent="1">
          <mxGeometry x="1370" y="827" width="180" height="160" as="geometry" />
        </mxCell>
        <mxCell id="vm62P0ihEN3N86-6UVHa-27" style="edgeStyle=orthogonalEdgeStyle;rounded=0;orthogonalLoop=1;jettySize=auto;html=1;entryX=0;entryY=0.25;entryDx=0;entryDy=0;startArrow=classic;startFill=1;fontFamily=K2D;" edge="1" parent="1">
          <mxGeometry relative="1" as="geometry">
            <mxPoint x="1550" y="874.5" as="sourcePoint" />
            <Array as="points">
              <mxPoint x="1610" y="874.5" />
              <mxPoint x="1610" y="874.5" />
            </Array>
            <mxPoint x="1710" y="874.5" as="targetPoint" />
          </mxGeometry>
        </mxCell>
        <mxCell id="vm62P0ihEN3N86-6UVHa-28" value="Image Stream&lt;div&gt;HTTP Protocol&lt;/div&gt;" style="edgeLabel;html=1;align=center;verticalAlign=middle;resizable=0;points=[];fontSize=16;fontFamily=K2D;" vertex="1" connectable="0" parent="vm62P0ihEN3N86-6UVHa-27">
          <mxGeometry x="-0.2725" y="-1" relative="1" as="geometry">
            <mxPoint x="20" y="-1" as="offset" />
          </mxGeometry>
        </mxCell>
        <mxCell id="vm62P0ihEN3N86-6UVHa-29" style="edgeStyle=orthogonalEdgeStyle;rounded=0;orthogonalLoop=1;jettySize=auto;html=1;entryX=-0.01;entryY=0.653;entryDx=0;entryDy=0;startArrow=classic;startFill=1;entryPerimeter=0;fontFamily=K2D;" edge="1" parent="1">
          <mxGeometry relative="1" as="geometry">
            <mxPoint x="1550" y="939.5" as="sourcePoint" />
            <Array as="points">
              <mxPoint x="1660" y="938.5" />
            </Array>
            <mxPoint x="1708" y="938.5" as="targetPoint" />
          </mxGeometry>
        </mxCell>
        <mxCell id="vm62P0ihEN3N86-6UVHa-30" value="Car Control&lt;div&gt;TCP Protocol&lt;/div&gt;" style="edgeLabel;html=1;align=center;verticalAlign=middle;resizable=0;points=[];fontSize=16;fontFamily=K2D;" vertex="1" connectable="0" parent="vm62P0ihEN3N86-6UVHa-29">
          <mxGeometry x="-0.1457" y="2" relative="1" as="geometry">
            <mxPoint x="10" y="2" as="offset" />
          </mxGeometry>
        </mxCell>
        <mxCell id="vm62P0ihEN3N86-6UVHa-34" style="edgeStyle=orthogonalEdgeStyle;rounded=0;orthogonalLoop=1;jettySize=auto;html=1;entryX=1;entryY=0.75;entryDx=0;entryDy=0;startArrow=classic;startFill=1;" edge="1" parent="1" source="vm62P0ihEN3N86-6UVHa-31" target="vm62P0ihEN3N86-6UVHa-17">
          <mxGeometry relative="1" as="geometry">
            <Array as="points">
              <mxPoint x="2010" y="680" />
              <mxPoint x="2010" y="680" />
            </Array>
          </mxGeometry>
        </mxCell>
        <mxCell id="vm62P0ihEN3N86-6UVHa-36" value="Image Display&lt;div&gt;HTTP Protocol&lt;/div&gt;" style="edgeLabel;html=1;align=center;verticalAlign=middle;resizable=0;points=[];fontSize=12;fontFamily=K2D;" vertex="1" connectable="0" parent="vm62P0ihEN3N86-6UVHa-34">
          <mxGeometry x="0.0163" y="1" relative="1" as="geometry">
            <mxPoint x="3" as="offset" />
          </mxGeometry>
        </mxCell>
        <mxCell id="vm62P0ihEN3N86-6UVHa-31" value="Misson Control Station" style="rounded=1;whiteSpace=wrap;html=1;fontFamily=Niramit;fontSize=21;" vertex="1" parent="1">
          <mxGeometry x="2050" y="560" width="240" height="160" as="geometry" />
        </mxCell>
        <mxCell id="vm62P0ihEN3N86-6UVHa-33" style="edgeStyle=orthogonalEdgeStyle;rounded=0;orthogonalLoop=1;jettySize=auto;html=1;exitX=0;exitY=0.25;exitDx=0;exitDy=0;startArrow=classic;startFill=1;" edge="1" parent="1" source="vm62P0ihEN3N86-6UVHa-31">
          <mxGeometry relative="1" as="geometry">
            <mxPoint x="1910" y="600" as="targetPoint" />
            <Array as="points">
              <mxPoint x="1910" y="600" />
            </Array>
          </mxGeometry>
        </mxCell>
        <mxCell id="vm62P0ihEN3N86-6UVHa-35" value="Allow Deny&lt;div&gt;MQTT Protocol&lt;/div&gt;" style="edgeLabel;html=1;align=center;verticalAlign=middle;resizable=0;points=[];fontSize=12;fontFamily=K2D;" vertex="1" connectable="0" parent="vm62P0ihEN3N86-6UVHa-33">
          <mxGeometry x="0.1456" y="-1" relative="1" as="geometry">
            <mxPoint x="12" as="offset" />
          </mxGeometry>
        </mxCell>
      </root>
    </mxGraphModel>
  </diagram>
</mxfile>
